<?xml version="1.0" encoding="utf-8"?>
<!-- Generator: Adobe Illustrator 25.2.1, SVG Export Plug-In . SVG Version: 6.00 Build 0)  -->
<svg version="1.1" id="Layer_1" xmlns="http://www.w3.org/2000/svg" xmlns:xlink="http://www.w3.org/1999/xlink" x="0px" y="0px"
	 viewBox="0 0 99.2 99.2" style="enable-background:new 0 0 99.2 99.2;" xml:space="preserve">
<style type="text/css">
	.st0{opacity:0.2;}
	.st1{fill:#FFFFFF;}
</style>
<g class="st0">
	<path class="st1" d="M36.2,46.4C37.6,39.9,43.5,35,50.4,35s12.7,4.9,14.2,11.4h23.6c-1.7-19.9-18.3-35.6-38.6-35.6
		S12.6,26.5,11,46.4L36.2,46.4L36.2,46.4z"/>
	<path class="st1" d="M64.6,52.8c-1.4,6.4-7.4,11.4-14.3,11.4s-12.7-4.9-14.2-11.4H11c1.6,19.9,18.3,35.6,38.6,35.6
		s37-15.7,38.6-35.6C88.2,52.8,64.6,52.8,64.6,52.8z"/>
	<path class="st1" d="M42.2,49.6c0,4.5,3.7,8.2,8.2,8.2s8.2-3.7,8.2-8.2s-3.7-8.2-8.2-8.2C45.9,41.4,42.2,45.1,42.2,49.6z"/>
</g>
</svg>
